<?xml version="1.0" encoding="utf-8"?>
<svg version="1.1" xmlns:xlink="http://www.w3.org/1999/xlink" width="12px" height="12px" viewBox="184 5.5  12 12" xmlns="http://www.w3.org/2000/svg">
  <path d="M 190 5.5  C 193.36 5.5  196 8.14  196 11.5  C 196 14.86  193.36 17.5  190 17.5  C 186.64 17.5  184 14.86  184 11.5  C 184 8.14  186.64 5.5  190 5.5  Z " fill-rule="nonzero" fill="#f0f0f0" stroke="none" />
  <path d="M 190 6  C 193.08 6  195.5 8.42  195.5 11.5  C 195.5 14.58  193.08 17  190 17  C 186.92 17  184.5 14.58  184.5 11.5  C 184.5 8.42  186.92 6  190 6  Z " stroke-width="1" stroke="#797979" fill="none" />
  <path d="M 190 14.5  C 188.32 14.5  187 13.18  187 11.5  C 187 9.82  188.32 8.5  190 8.5  C 191.68 8.5  193 9.82  193 11.5  C 193 13.18  191.68 14.5  190 14.5  " fill-rule="nonzero" fill="#797979" stroke="none" />
</svg>