<?xml version="1.0" encoding="utf-8"?>
<svg version="1.1" xmlns:xlink="http://www.w3.org/1999/xlink" width="12px" height="12px" viewBox="166 409  12 12" xmlns="http://www.w3.org/2000/svg">
  <path d="M 172 409  C 175.36 409  178 411.64  178 415  C 178 418.36  175.36 421  172 421  C 168.64 421  166 418.36  166 415  C 166 411.64  168.64 409  172 409  Z " fill-rule="nonzero" fill="#ffffff" stroke="none" />
  <path d="M 172 409.5  C 175.08 409.5  177.5 411.92  177.5 415  C 177.5 418.08  175.08 420.5  172 420.5  C 168.92 420.5  166.5 418.08  166.5 415  C 166.5 411.92  168.92 409.5  172 409.5  Z " stroke-width="1" stroke="#797979" fill="none" />
  <path d="M 172 418  C 170.32 418  169 416.68  169 415  C 169 413.32  170.32 412  172 412  C 173.68 412  175 413.32  175 415  C 175 416.68  173.68 418  172 418  " fill-rule="nonzero" fill="#797979" stroke="none" />
</svg>