<?xml version="1.0" encoding="utf-8"?>
<svg version="1.1" xmlns:xlink="http://www.w3.org/1999/xlink" width="12px" height="12px" viewBox="650 409  12 12" xmlns="http://www.w3.org/2000/svg">
  <path d="M 656 409  C 659.36 409  662 411.64  662 415  C 662 418.36  659.36 421  656 421  C 652.64 421  650 418.36  650 415  C 650 411.64  652.64 409  656 409  Z " fill-rule="nonzero" fill="#ffffff" stroke="none" />
  <path d="M 656 409.5  C 659.08 409.5  661.5 411.92  661.5 415  C 661.5 418.08  659.08 420.5  656 420.5  C 652.92 420.5  650.5 418.08  650.5 415  C 650.5 411.92  652.92 409.5  656 409.5  Z " stroke-width="1" stroke="#797979" fill="none" />
  <path d="M 656 418  C 654.32 418  653 416.68  653 415  C 653 413.32  654.32 412  656 412  C 657.68 412  659 413.32  659 415  C 659 416.68  657.68 418  656 418  " fill-rule="nonzero" fill="#797979" stroke="none" />
</svg>