<?xml version="1.0" encoding="utf-8"?>
<svg version="1.1" xmlns:xlink="http://www.w3.org/1999/xlink" width="12px" height="12px" viewBox="394 409  12 12" xmlns="http://www.w3.org/2000/svg">
  <path d="M 400 409  C 403.36 409  406 411.64  406 415  C 406 418.36  403.36 421  400 421  C 396.64 421  394 418.36  394 415  C 394 411.64  396.64 409  400 409  Z " fill-rule="nonzero" fill="#f0f0f0" stroke="none" />
  <path d="M 400 409.5  C 403.08 409.5  405.5 411.92  405.5 415  C 405.5 418.08  403.08 420.5  400 420.5  C 396.92 420.5  394.5 418.08  394.5 415  C 394.5 411.92  396.92 409.5  400 409.5  Z " stroke-width="1" stroke="#797979" fill="none" />
  <path d="M 400 418  C 398.32 418  397 416.68  397 415  C 397 413.32  398.32 412  400 412  C 401.68 412  403 413.32  403 415  C 403 416.68  401.68 418  400 418  " fill-rule="nonzero" fill="#797979" stroke="none" />
</svg>