<?xml version="1.0" encoding="utf-8"?>
<svg version="1.1" xmlns:xlink="http://www.w3.org/1999/xlink" width="12px" height="12px" viewBox="67 222  12 12" xmlns="http://www.w3.org/2000/svg">
  <path d="M 73 222  C 76.36 222  79 224.64  79 228  C 79 231.36  76.36 234  73 234  C 69.64 234  67 231.36  67 228  C 67 224.64  69.64 222  73 222  Z " fill-rule="nonzero" fill="#ffffff" stroke="none" />
  <path d="M 73 222.5  C 76.08 222.5  78.5 224.92  78.5 228  C 78.5 231.08  76.08 233.5  73 233.5  C 69.92 233.5  67.5 231.08  67.5 228  C 67.5 224.92  69.92 222.5  73 222.5  Z " stroke-width="1" stroke="#797979" fill="none" />
  <path d="M 73 231  C 71.32 231  70 229.68  70 228  C 70 226.32  71.32 225  73 225  C 74.68 225  76 226.32  76 228  C 76 229.68  74.68 231  73 231  " fill-rule="nonzero" fill="#797979" stroke="none" />
</svg>