<?xml version="1.0" encoding="utf-8"?>
<svg version="1.1" xmlns:xlink="http://www.w3.org/1999/xlink" width="12px" height="12px" viewBox="67 154  12 12" xmlns="http://www.w3.org/2000/svg">
  <path d="M 73 154  C 76.36 154  79 156.64  79 160  C 79 163.36  76.36 166  73 166  C 69.64 166  67 163.36  67 160  C 67 156.64  69.64 154  73 154  Z " fill-rule="nonzero" fill="#ffffff" stroke="none" />
  <path d="M 73 154.5  C 76.08 154.5  78.5 156.92  78.5 160  C 78.5 163.08  76.08 165.5  73 165.5  C 69.92 165.5  67.5 163.08  67.5 160  C 67.5 156.92  69.92 154.5  73 154.5  Z " stroke-width="1" stroke="#797979" fill="none" />
  <path d="M 73 163  C 71.32 163  70 161.68  70 160  C 70 158.32  71.32 157  73 157  C 74.68 157  76 158.32  76 160  C 76 161.68  74.68 163  73 163  " fill-rule="nonzero" fill="#797979" stroke="none" />
</svg>