<?xml version="1.0" encoding="utf-8"?>
<svg version="1.1" xmlns:xlink="http://www.w3.org/1999/xlink" width="12px" height="12px" viewBox="62 195  12 12" xmlns="http://www.w3.org/2000/svg">
  <path d="M 68 195  C 71.36 195  74 197.64  74 201  C 74 204.36  71.36 207  68 207  C 64.64 207  62 204.36  62 201  C 62 197.64  64.64 195  68 195  Z " fill-rule="nonzero" fill="#ffffff" stroke="none" />
  <path d="M 68 195.5  C 71.08 195.5  73.5 197.92  73.5 201  C 73.5 204.08  71.08 206.5  68 206.5  C 64.92 206.5  62.5 204.08  62.5 201  C 62.5 197.92  64.92 195.5  68 195.5  Z " stroke-width="1" stroke="#797979" fill="none" />
  <path d="M 68 204  C 66.32 204  65 202.68  65 201  C 65 199.32  66.32 198  68 198  C 69.68 198  71 199.32  71 201  C 71 202.68  69.68 204  68 204  " fill-rule="nonzero" fill="#797979" stroke="none" />
</svg>