<?xml version="1.0" encoding="utf-8"?>
<svg version="1.1" xmlns:xlink="http://www.w3.org/1999/xlink" width="12px" height="12px" viewBox="76 135  12 12" xmlns="http://www.w3.org/2000/svg">
  <path d="M 82 135  C 85.36 135  88 137.64  88 141  C 88 144.36  85.36 147  82 147  C 78.64 147  76 144.36  76 141  C 76 137.64  78.64 135  82 135  Z " fill-rule="nonzero" fill="#ffffff" stroke="none" />
  <path d="M 82 135.5  C 85.08 135.5  87.5 137.92  87.5 141  C 87.5 144.08  85.08 146.5  82 146.5  C 78.92 146.5  76.5 144.08  76.5 141  C 76.5 137.92  78.92 135.5  82 135.5  Z " stroke-width="1" stroke="#797979" fill="none" />
  <path d="M 82 144  C 80.32 144  79 142.68  79 141  C 79 139.32  80.32 138  82 138  C 83.68 138  85 139.32  85 141  C 85 142.68  83.68 144  82 144  " fill-rule="nonzero" fill="#797979" stroke="none" />
</svg>