<?xml version="1.0" encoding="utf-8"?>
<svg version="1.1" xmlns:xlink="http://www.w3.org/1999/xlink" width="12px" height="12px" viewBox="292 242.5  12 12" xmlns="http://www.w3.org/2000/svg">
  <path d="M 298 242.5  C 301.36 242.5  304 245.14  304 248.5  C 304 251.86  301.36 254.5  298 254.5  C 294.64 254.5  292 251.86  292 248.5  C 292 245.14  294.64 242.5  298 242.5  Z " fill-rule="nonzero" fill="#ffffff" stroke="none" />
  <path d="M 298 243  C 301.08 243  303.5 245.42  303.5 248.5  C 303.5 251.58  301.08 254  298 254  C 294.92 254  292.5 251.58  292.5 248.5  C 292.5 245.42  294.92 243  298 243  Z " stroke-width="1" stroke="#797979" fill="none" />
  <path d="M 298 251.5  C 296.32 251.5  295 250.18  295 248.5  C 295 246.82  296.32 245.5  298 245.5  C 299.68 245.5  301 246.82  301 248.5  C 301 250.18  299.68 251.5  298 251.5  " fill-rule="nonzero" fill="#797979" stroke="none" />
</svg>