<?xml version="1.0" encoding="utf-8"?>
<svg version="1.1" xmlns:xlink="http://www.w3.org/1999/xlink" width="12px" height="12px" viewBox="391 241.5  12 12" xmlns="http://www.w3.org/2000/svg">
  <path d="M 397 241.5  C 400.36 241.5  403 244.14  403 247.5  C 403 250.86  400.36 253.5  397 253.5  C 393.64 253.5  391 250.86  391 247.5  C 391 244.14  393.64 241.5  397 241.5  Z " fill-rule="nonzero" fill="#f0f0f0" stroke="none" />
  <path d="M 397 242  C 400.08 242  402.5 244.42  402.5 247.5  C 402.5 250.58  400.08 253  397 253  C 393.92 253  391.5 250.58  391.5 247.5  C 391.5 244.42  393.92 242  397 242  Z " stroke-width="1" stroke="#797979" fill="none" />
  <path d="M 397 250.5  C 395.32 250.5  394 249.18  394 247.5  C 394 245.82  395.32 244.5  397 244.5  C 398.68 244.5  400 245.82  400 247.5  C 400 249.18  398.68 250.5  397 250.5  " fill-rule="nonzero" fill="#797979" stroke="none" />
</svg>