<?xml version="1.0" encoding="utf-8"?>
<svg version="1.1" xmlns:xlink="http://www.w3.org/1999/xlink" width="12px" height="12px" viewBox="68 125.5  12 12" xmlns="http://www.w3.org/2000/svg">
  <path d="M 74 125.5  C 77.36 125.5  80 128.14  80 131.5  C 80 134.86  77.36 137.5  74 137.5  C 70.64 137.5  68 134.86  68 131.5  C 68 128.14  70.64 125.5  74 125.5  Z " fill-rule="nonzero" fill="#ffffff" stroke="none" />
  <path d="M 74 126  C 77.08 126  79.5 128.42  79.5 131.5  C 79.5 134.58  77.08 137  74 137  C 70.92 137  68.5 134.58  68.5 131.5  C 68.5 128.42  70.92 126  74 126  Z " stroke-width="1" stroke="#797979" fill="none" />
  <path d="M 74 134.5  C 72.32 134.5  71 133.18  71 131.5  C 71 129.82  72.32 128.5  74 128.5  C 75.68 128.5  77 129.82  77 131.5  C 77 133.18  75.68 134.5  74 134.5  " fill-rule="nonzero" fill="#797979" stroke="none" />
</svg>