<?xml version="1.0" encoding="utf-8"?>
<svg version="1.1" xmlns:xlink="http://www.w3.org/1999/xlink" width="12px" height="12px" viewBox="68 68.5  12 12" xmlns="http://www.w3.org/2000/svg">
  <path d="M 74 68.5  C 77.36 68.5  80 71.14  80 74.5  C 80 77.86  77.36 80.5  74 80.5  C 70.64 80.5  68 77.86  68 74.5  C 68 71.14  70.64 68.5  74 68.5  Z " fill-rule="nonzero" fill="#ffffff" stroke="none" />
  <path d="M 74 69  C 77.08 69  79.5 71.42  79.5 74.5  C 79.5 77.58  77.08 80  74 80  C 70.92 80  68.5 77.58  68.5 74.5  C 68.5 71.42  70.92 69  74 69  Z " stroke-width="1" stroke="#797979" fill="none" />
  <path d="M 74 77.5  C 72.32 77.5  71 76.18  71 74.5  C 71 72.82  72.32 71.5  74 71.5  C 75.68 71.5  77 72.82  77 74.5  C 77 76.18  75.68 77.5  74 77.5  " fill-rule="nonzero" fill="#797979" stroke="none" />
</svg>