<?xml version="1.0" encoding="utf-8"?>
<svg version="1.1" xmlns:xlink="http://www.w3.org/1999/xlink" width="12px" height="12px" viewBox="298 257.5  12 12" xmlns="http://www.w3.org/2000/svg">
  <path d="M 304 257.5  C 307.36 257.5  310 260.14  310 263.5  C 310 266.86  307.36 269.5  304 269.5  C 300.64 269.5  298 266.86  298 263.5  C 298 260.14  300.64 257.5  304 257.5  Z " fill-rule="nonzero" fill="#f0f0f0" stroke="none" />
  <path d="M 304 258  C 307.08 258  309.5 260.42  309.5 263.5  C 309.5 266.58  307.08 269  304 269  C 300.92 269  298.5 266.58  298.5 263.5  C 298.5 260.42  300.92 258  304 258  Z " stroke-width="1" stroke="#797979" fill="none" />
  <path d="M 304 266.5  C 302.32 266.5  301 265.18  301 263.5  C 301 261.82  302.32 260.5  304 260.5  C 305.68 260.5  307 261.82  307 263.5  C 307 265.18  305.68 266.5  304 266.5  " fill-rule="nonzero" fill="#797979" stroke="none" />
</svg>