<?xml version="1.0" encoding="utf-8"?>
<svg version="1.1" xmlns:xlink="http://www.w3.org/1999/xlink" width="36px" height="16px" xmlns="http://www.w3.org/2000/svg">
  <defs>
    <mask fill="white" id="clip69">
      <path d="M 0 16  L 0 0  L 18.6315789473684 0  L 36 0  L 36 16  L 21.7894736842105 16  L 15.4736842105263 16  L 0 16  Z " fill-rule="evenodd" />
    </mask>
  </defs>
  <g transform="matrix(1 0 0 1 -663 -149 )">
    <path d="M 0 16  L 0 0  L 18.6315789473684 0  L 36 0  L 36 16  L 21.7894736842105 16  L 15.4736842105263 16  L 0 16  Z " fill-rule="nonzero" fill="#ffffff" stroke="none" transform="matrix(1 0 0 1 663 149 )" />
    <path d="M 0 16  L 0 0  L 18.6315789473684 0  L 36 0  L 36 16  L 21.7894736842105 16  L 15.4736842105263 16  L 0 16  Z " stroke-width="2" stroke="#aaaaaa" fill="none" transform="matrix(1 0 0 1 663 149 )" mask="url(#clip69)" />
  </g>
</svg>