<?xml version="1.0" encoding="utf-8"?>
<svg version="1.1" xmlns:xlink="http://www.w3.org/1999/xlink" width="21px" height="22px" xmlns="http://www.w3.org/2000/svg">
  <defs>
    <mask fill="white" id="clip63">
      <path d="M 0 11  C 0 5.79589699998395  3.29740519903928 1.53390977112198  7.86623728677681 0.336491781390464  C 7.8679445080758 0.33604434592849  7.86965190690022 0.335597338362965  7.87135948314443 0.335150758804629  C 8.70903592565509 0.116074640243844  9.5894090737049 0  10.5 0  C 16.38 0  21 4.84  21 11  C 21 17.0178639373318  16.5907443545164 21.7759405473826  10.9049722063393 21.9923126329436  C 10.9046173708449 21.99232613621  10.9042625303789 21.9923396217878  10.903907684942 21.9923530896761  C 10.7699663881917 21.9974367295969  10.6353168429293 22  10.5 22  C 4.61999999999999 22  0 17.16  0 11  Z " fill-rule="evenodd" />
    </mask>
  </defs>
  <g transform="matrix(1 0 0 1 -117 -6 )">
    <path d="M 0 11  C 0 5.79589699998395  3.29740519903928 1.53390977112198  7.86623728677681 0.336491781390464  C 7.8679445080758 0.33604434592849  7.86965190690022 0.335597338362965  7.87135948314443 0.335150758804629  C 8.70903592565509 0.116074640243844  9.5894090737049 0  10.5 0  C 16.38 0  21 4.84  21 11  C 21 17.0178639373318  16.5907443545164 21.7759405473826  10.9049722063393 21.9923126329436  C 10.9046173708449 21.99232613621  10.9042625303789 21.9923396217878  10.903907684942 21.9923530896761  C 10.7699663881917 21.9974367295969  10.6353168429293 22  10.5 22  C 4.61999999999999 22  0 17.16  0 11  Z " fill-rule="nonzero" fill="#d7d7d7" stroke="none" transform="matrix(1 0 0 1 117 6 )" />
    <path d="M 0 11  C 0 5.79589699998395  3.29740519903928 1.53390977112198  7.86623728677681 0.336491781390464  C 7.8679445080758 0.33604434592849  7.86965190690022 0.335597338362965  7.87135948314443 0.335150758804629  C 8.70903592565509 0.116074640243844  9.5894090737049 0  10.5 0  C 16.38 0  21 4.84  21 11  C 21 17.0178639373318  16.5907443545164 21.7759405473826  10.9049722063393 21.9923126329436  C 10.9046173708449 21.99232613621  10.9042625303789 21.9923396217878  10.903907684942 21.9923530896761  C 10.7699663881917 21.9974367295969  10.6353168429293 22  10.5 22  C 4.61999999999999 22  0 17.16  0 11  Z " stroke-width="2" stroke="#797979" fill="none" transform="matrix(1 0 0 1 117 6 )" mask="url(#clip63)" />
  </g>
</svg>