<?xml version="1.0" encoding="utf-8"?>
<svg version="1.1" xmlns:xlink="http://www.w3.org/1999/xlink" width="32px" height="24px" xmlns="http://www.w3.org/2000/svg">
  <g transform="matrix(1 0 0 1 -147 -68 )">
    <path d="M 31.8303571428571 15.5982142857143  C 31.9434523809524 15.7113095238095  32 15.8452380952381  32 16  L 32 19.4285714285714  C 32 19.5833333333333  31.9434523809524 19.7172619047619  31.8303571428571 19.8303571428571  C 31.7172619047619 19.9434523809524  31.5833333333333 20  31.4285714285714 20  L 6.85714285714286 20  L 6.85714285714286 23.4285714285714  C 6.85714285714286 23.5833333333333  6.80059523809524 23.7172619047619  6.6875 23.8303571428571  C 6.57440476190476 23.9434523809524  6.44047619047619 24  6.28571428571429 24  C 6.14285714285714 24  6 23.9404761904762  5.85714285714286 23.8214285714286  L 0.160714285714286 18.1071428571429  C 0.0535714285714286 18  0 17.8690476190476  0 17.7142857142857  C 0 17.547619047619  0.0535714285714286 17.4107142857143  0.160714285714286 17.3035714285714  L 5.875 11.5892857142857  C 5.98214285714286 11.4821428571429  6.11904761904762 11.4285714285714  6.28571428571429 11.4285714285714  C 6.44047619047619 11.4285714285714  6.57440476190476 11.485119047619  6.6875 11.5982142857143  C 6.80059523809524 11.7113095238095  6.85714285714286 11.8452380952381  6.85714285714286 12  L 6.85714285714286 15  L 31.4285714285714 15  C 31.5833333333333 15.4285714285714  31.7172619047619 15.485119047619  31.8303571428571 15.5982142857143  Z M 31.8392857142857 5.875  C 31.9464285714286 5.98214285714286  32 6.11904761904762  32 6.28571428571428  C 32 6.45238095238095  31.9464285714286 6.58928571428571  31.8392857142857 6.69642857142857  L 26.125 12.4107142857143  C 26.0178571428571 12.5178571428571  25.8809523809524 12.5714285714286  25.7142857142857 12.5714285714286  C 25.5595238095238 12.5714285714286  25.4255952380952 12.514880952381  25.3125 12.4017857142857  C 25.1994047619048 12.2886904761905  25.1428571428571 12.1547619047619  25.1428571428571 12  L 25.1428571428571 9  L 0.571428571428571 9  C 0.416666666666667 8.57142857142857  0.282738095238095 8.51488095238095  0.169642857142857 8.40178571428572  C 0.056547619047619 8.28869047619047  0 8.15476190476191  0 8  L 0 4.57142857142857  C 0 4.41666666666666  0.056547619047619 4.28273809523809  0.169642857142857 4.16964285714286  C 0.282738095238095 4.05654761904762  0.416666666666667 4  0.571428571428571 4  L 25.1428571428571 4  L 25.1428571428571 0.571428571428572  C 25.1428571428571 0.404761904761903  25.1964285714286 0.267857142857143  25.3035714285714 0.160714285714286  C 25.4107142857143 0.0535714285714297  25.547619047619 0  25.7142857142857 0  C 25.8571428571429 0  26 0.0595238095238093  26.1428571428571 0.178571428571428  L 31.8392857142857 5.875  Z " fill-rule="nonzero" fill="#000000" stroke="none" transform="matrix(1 0 0 1 147 68 )" />
  </g>
</svg>