<svg t="1596013451898" class="icon" viewBox="0 0 1024 1024" version="1.1" xmlns="http://www.w3.org/2000/svg" p-id="6678"><path d="M426.666667 170.666667a64 64 0 0 1 64 64v554.666666a64 64 0 0 1-64 64h-192a64 64 0 0 1-64-64V234.666667a64 64 0 0 1 64-64h192z m362.666666 362.666666a64 64 0 0 1 64 64v192a64 64 0 0 1-64 64h-192a64 64 0 0 1-64-64v-192a64 64 0 0 1 64-64h192zM426.666667 234.666667h-192v554.666666h192V234.666667z m362.666666 362.666666h-192v192h192v-192z m0-426.666666a64 64 0 0 1 64 64v192a64 64 0 0 1-64 64h-192a64 64 0 0 1-64-64v-192a64 64 0 0 1 64-64h192z m0 64h-192v192h192v-192z" p-id="6679"></path></svg>