<?xml version="1.0" encoding="utf-8"?>
<svg version="1.1" xmlns:xlink="http://www.w3.org/1999/xlink" width="12px" height="12px" viewBox="279 167.5  12 12" xmlns="http://www.w3.org/2000/svg">
  <path d="M 285 167.5  C 288.36 167.5  291 170.14  291 173.5  C 291 176.86  288.36 179.5  285 179.5  C 281.64 179.5  279 176.86  279 173.5  C 279 170.14  281.64 167.5  285 167.5  Z " fill-rule="nonzero" fill="#ffffff" stroke="none" />
  <path d="M 285 168  C 288.08 168  290.5 170.42  290.5 173.5  C 290.5 176.58  288.08 179  285 179  C 281.92 179  279.5 176.58  279.5 173.5  C 279.5 170.42  281.92 168  285 168  Z " stroke-width="1" stroke="#797979" fill="none" />
  <path d="M 285 176.5  C 283.32 176.5  282 175.18  282 173.5  C 282 171.82  283.32 170.5  285 170.5  C 286.68 170.5  288 171.82  288 173.5  C 288 175.18  286.68 176.5  285 176.5  " fill-rule="nonzero" fill="#797979" stroke="none" />
</svg>