<?xml version="1.0" encoding="utf-8"?>
<svg version="1.1" xmlns:xlink="http://www.w3.org/1999/xlink" width="12px" height="12px" viewBox="928 574.5  12 12" xmlns="http://www.w3.org/2000/svg">
  <path d="M 934 574.5  C 937.36 574.5  940 577.14  940 580.5  C 940 583.86  937.36 586.5  934 586.5  C 930.64 586.5  928 583.86  928 580.5  C 928 577.14  930.64 574.5  934 574.5  Z " fill-rule="nonzero" fill="#ffffff" stroke="none" />
  <path d="M 934 575  C 937.08 575  939.5 577.42  939.5 580.5  C 939.5 583.58  937.08 586  934 586  C 930.92 586  928.5 583.58  928.5 580.5  C 928.5 577.42  930.92 575  934 575  Z " stroke-width="1" stroke="#797979" fill="none" />
  <path d="M 934 583.5  C 932.32 583.5  931 582.18  931 580.5  C 931 578.82  932.32 577.5  934 577.5  C 935.68 577.5  937 578.82  937 580.5  C 937 582.18  935.68 583.5  934 583.5  " fill-rule="nonzero" fill="#797979" stroke="none" />
</svg>