<?xml version="1.0" encoding="utf-8"?>
<svg version="1.1" xmlns:xlink="http://www.w3.org/1999/xlink" width="20px" height="20px" xmlns="http://www.w3.org/2000/svg">
  <defs>
    <path d="M 0 0  L 1024 0  L 1024 1024  L 0 1024  Z " fill-rule="evenodd" fill="black" id="path40" />
    <clipPath id="clip41">
      <use xlink:href="#path40" />
    </clipPath>
    <filter x="-50.00%" y="-50.00%" width="200.00%" height="200.00%" filterUnits="objectBoundingBox" id="filter42">
      <feColorMatrix type="matrix" values="0.3086 0.6094 0.082 0 0  0.3086 0.6094 0.082 0 0  0.3086 0.6094 0.082 0 0  0 0 0 1 0  " in="SourceGraphic" />
    </filter>
  </defs>
  <g transform="matrix(1 0 0 1 -1804 -70 )">
    <g transform="matrix(0.01953125 0 0 0.01953125 1804 70 )" clip-path="url(#clip41)" filter="url(#filter42)">
      <path d="M789.333333 620.309333a64 64 0 0 1 64 64v192l-128-48-128 48v-192a64 64 0 0 1 64-64h128z m-570.773333 148.693334l146.602667-171.029334A276.053333 276.053333 0 0 0 512 640a279.466667 279.466667 0 0 0 42.666667-3.264V874.666667H267.157333a64 64 0 0 1-48.597333-105.642667l146.602667-171.050667zM789.333333 684.330667h-128v99.626666l64-23.978666 64 24v-99.648zM512 149.333333c117.824 0 213.333333 95.509333 213.333333 213.333334s-95.509333 213.333333-213.333333 213.333333-213.333333-95.509333-213.333333-213.333333S394.176 149.333333 512 149.333333z" p-id="3638"></path>
    </g>
  </g>
</svg>