<?xml version="1.0" encoding="utf-8"?>
<svg version="1.1" xmlns:xlink="http://www.w3.org/1999/xlink" width="9px" height="8px" xmlns="http://www.w3.org/2000/svg">
  <g transform="matrix(1 0 0 1 -113 -102 )">
    <path d="M 8.78626444159178 3.73913043478261  C 8.92875481386393 3.8804347826087  9 4.04528985507246  9 4.23369565217391  C 9 4.41847826086957  8.92875481386393 4.58152173913043  8.78626444159178 4.72282608695652  L 8.35301668806162 5.1304347826087  C 8.20667522464698 5.26811594202898  8.03145057766367 5.33695652173913  7.82734274711168 5.33695652173913  C 7.6193838254172 5.33695652173913  7.44608472400513 5.26811594202898  7.30744544287548 5.1304347826087  L 5.60911424903723 3.53804347826087  L 5.60911424903723 7.36413043478261  C 5.60911424903723 7.55253623188406  5.53690629011553 7.70561594202899  5.39249037227214 7.82336956521739  C 5.24807445442875 7.9411231884058  5.07381258023107 8  4.86970474967908 8  L 4.13029525032092 8  C 3.92618741976893 8  3.75192554557125 7.9411231884058  3.60750962772786 7.82336956521739  C 3.46309370988447 7.70561594202899  3.39088575096277 7.55253623188406  3.39088575096277 7.36413043478261  L 3.39088575096277 3.53804347826087  L 1.69255455712452 5.1304347826087  C 1.55391527599487 5.26811594202898  1.3806161745828 5.33695652173913  1.17265725288832 5.33695652173913  C 0.964698331193838 5.33695652173913  0.791399229781771 5.26811594202898  0.652759948652118 5.1304347826087  L 0.219512195121951 4.72282608695652  C 0.0731707317073171 4.58514492753623  0 4.42210144927536  0 4.23369565217391  C 0 4.04166666666667  0.0731707317073171 3.8768115942029  0.219512195121951 3.73913043478261  L 3.9801026957638 0.201086956521739  C 4.11489088575096 0.0670289855072461  4.28818998716303 0  4.5 0  C 4.70795892169448 0  4.88318356867779 0.0670289855072461  5.02567394094994 0.201086956521739  L 8.78626444159178 3.73913043478261  Z " fill-rule="nonzero" fill="#000000" stroke="none" transform="matrix(1 0 0 1 113 102 )" />
  </g>
</svg>