<?xml version="1.0" encoding="utf-8"?>
<svg version="1.1" xmlns:xlink="http://www.w3.org/1999/xlink" width="16px" height="16px" xmlns="http://www.w3.org/2000/svg">
  <defs>
    <path d="M 0 0  L 1024 0  L 1024 1024  L 0 1024  Z " fill-rule="evenodd" fill="black" id="path50" />
    <clipPath id="clip51">
      <use xlink:href="#path50" />
    </clipPath>
    <filter x="-50.00%" y="-50.00%" width="200.00%" height="200.00%" filterUnits="objectBoundingBox" id="filter52">
      <feColorMatrix type="matrix" values="0.3086 0.6094 0.082 0 0  0.3086 0.6094 0.082 0 0  0.3086 0.6094 0.082 0 0  0 0 0 1 0  " in="SourceGraphic" />
    </filter>
  </defs>
  <g transform="matrix(1 0 0 1 -197 -6 )">
    <g transform="matrix(0.015625 0 0 0.015625 197 6 )" clip-path="url(#clip51)" filter="url(#filter52)">
      <path d="M512 149.333333c200.298667 0 362.666667 162.368 362.666667 362.666667s-162.368 362.666667-362.666667 362.666667S149.333333 712.298667 149.333333 512 311.701333 149.333333 512 149.333333z m169.045333 191.04L455.317333 572.650667l-90.944-94.336-46.08 44.416 136.832 141.952 271.829334-279.722667-45.909334-44.586667z" p-id="4045"></path>
    </g>
  </g>
</svg>