<?xml version="1.0" encoding="utf-8"?>
<svg version="1.1" xmlns:xlink="http://www.w3.org/1999/xlink" width="12px" height="12px" viewBox="301 390.5  12 12" xmlns="http://www.w3.org/2000/svg">
  <path d="M 307 390.5  C 310.36 390.5  313 393.14  313 396.5  C 313 399.86  310.36 402.5  307 402.5  C 303.64 402.5  301 399.86  301 396.5  C 301 393.14  303.64 390.5  307 390.5  Z " fill-rule="nonzero" fill="#ffffff" stroke="none" />
  <path d="M 307 391  C 310.08 391  312.5 393.42  312.5 396.5  C 312.5 399.58  310.08 402  307 402  C 303.92 402  301.5 399.58  301.5 396.5  C 301.5 393.42  303.92 391  307 391  Z " stroke-width="1" stroke="#797979" fill="none" />
  <path d="M 307 399.5  C 305.32 399.5  304 398.18  304 396.5  C 304 394.82  305.32 393.5  307 393.5  C 308.68 393.5  310 394.82  310 396.5  C 310 398.18  308.68 399.5  307 399.5  " fill-rule="nonzero" fill="#797979" stroke="none" />
</svg>