<?xml version="1.0" encoding="utf-8"?>
<svg version="1.1" xmlns:xlink="http://www.w3.org/1999/xlink" width="12px" height="12px" viewBox="714 127.5  12 12" xmlns="http://www.w3.org/2000/svg">
  <path d="M 720 127.5  C 723.36 127.5  726 130.14  726 133.5  C 726 136.86  723.36 139.5  720 139.5  C 716.64 139.5  714 136.86  714 133.5  C 714 130.14  716.64 127.5  720 127.5  Z " fill-rule="nonzero" fill="#ffffff" stroke="none" />
  <path d="M 720 128  C 723.08 128  725.5 130.42  725.5 133.5  C 725.5 136.58  723.08 139  720 139  C 716.92 139  714.5 136.58  714.5 133.5  C 714.5 130.42  716.92 128  720 128  Z " stroke-width="1" stroke="#797979" fill="none" />
  <path d="M 720 136.5  C 718.32 136.5  717 135.18  717 133.5  C 717 131.82  718.32 130.5  720 130.5  C 721.68 130.5  723 131.82  723 133.5  C 723 135.18  721.68 136.5  720 136.5  " fill-rule="nonzero" fill="#797979" stroke="none" />
</svg>