<?xml version="1.0" encoding="utf-8"?>
<svg version="1.1" xmlns:xlink="http://www.w3.org/1999/xlink" width="20px" height="20px" xmlns="http://www.w3.org/2000/svg">
  <g transform="matrix(1 0 0 1 -590 -6 )">
    <path d="M 20 10  C 20 4.475  15.525 0  10 0  C 4.475 0  0 4.475  0 10  C 0 15.525  4.475 20  10 20  C 15.525 20  20 15.525  20 10  Z M 11.415 10  L 15 13.585  L 13.585 15  L 10 11.415  L 6.415 15  L 5 13.585  L 8.585 10  L 5 6.415  L 6.415 5  L 10 8.585  L 13.585 5  L 15 6.415  L 11.415 10  Z " fill-rule="nonzero" fill="#000000" stroke="none" transform="matrix(1 0 0 1 590 6 )" />
  </g>
</svg>