<?xml version="1.0" encoding="utf-8"?>
<svg version="1.1" xmlns:xlink="http://www.w3.org/1999/xlink" width="73px" height="25px" viewBox="441 42  73 25" xmlns="http://www.w3.org/2000/svg">
  <path d="M 442 47  A 4 4 0 0 1 446 43 L 509 43  A 4 4 0 0 1 513 47 L 513 62  A 4 4 0 0 1 509 66 L 446 66  A 4 4 0 0 1 442 62 L 442 47  Z " fill-rule="nonzero" fill="#f0f0f0" stroke="none" />
  <path d="M 441.5 47  A 4.5 4.5 0 0 1 446 42.5 L 509 42.5  A 4.5 4.5 0 0 1 513.5 47 L 513.5 62  A 4.5 4.5 0 0 1 509 66.5 L 446 66.5  A 4.5 4.5 0 0 1 441.5 62 L 441.5 47  Z " stroke-width="1" stroke="#ec808d" fill="none" stroke-opacity="0.792156862745098" />
</svg>