<?xml version="1.0" encoding="utf-8"?>
<svg version="1.1" xmlns:xlink="http://www.w3.org/1999/xlink" width="12px" height="12px" viewBox="791 574.5  12 12" xmlns="http://www.w3.org/2000/svg">
  <path d="M 797 574.5  C 800.36 574.5  803 577.14  803 580.5  C 803 583.86  800.36 586.5  797 586.5  C 793.64 586.5  791 583.86  791 580.5  C 791 577.14  793.64 574.5  797 574.5  Z " fill-rule="nonzero" fill="#ffffff" stroke="none" />
  <path d="M 797 575  C 800.08 575  802.5 577.42  802.5 580.5  C 802.5 583.58  800.08 586  797 586  C 793.92 586  791.5 583.58  791.5 580.5  C 791.5 577.42  793.92 575  797 575  Z " stroke-width="1" stroke="#797979" fill="none" />
  <path d="M 797 583.5  C 795.32 583.5  794 582.18  794 580.5  C 794 578.82  795.32 577.5  797 577.5  C 798.68 577.5  800 578.82  800 580.5  C 800 582.18  798.68 583.5  797 583.5  " fill-rule="nonzero" fill="#797979" stroke="none" />
</svg>