<?xml version="1.0" encoding="utf-8"?>
<svg version="1.1" xmlns:xlink="http://www.w3.org/1999/xlink" width="278px" height="25px" viewBox="163 42  278 25" xmlns="http://www.w3.org/2000/svg">
  <path d="M 164 47  A 4 4 0 0 1 168 43 L 436 43  A 4 4 0 0 1 440 47 L 440 62  A 4 4 0 0 1 436 66 L 168 66  A 4 4 0 0 1 164 62 L 164 47  Z " fill-rule="nonzero" fill="#ffffff" stroke="none" />
  <path d="M 163.5 47  A 4.5 4.5 0 0 1 168 42.5 L 436 42.5  A 4.5 4.5 0 0 1 440.5 47 L 440.5 62  A 4.5 4.5 0 0 1 436 66.5 L 168 66.5  A 4.5 4.5 0 0 1 163.5 62 L 163.5 47  Z " stroke-width="1" stroke="#ec808d" fill="none" stroke-opacity="0.729411764705882" />
</svg>