<?xml version="1.0" encoding="utf-8"?>
<svg version="1.1" xmlns:xlink="http://www.w3.org/1999/xlink" width="52px" height="24px" xmlns="http://www.w3.org/2000/svg">
  <defs>
    <mask fill="white" id="clip9">
      <path d="M 0 19  L 0 5  C 0 2.19999999999999  2.20000000000005 0  5 0  L 25 0  L 47 0  C 49.8 0  52 2.19999999999999  52 5  L 52 19  C 52 21.8  49.8 24  47 24  L 5 24  C 2.20000000000005 24  0 21.8  0 19  Z " fill-rule="evenodd" />
    </mask>
  </defs>
  <g transform="matrix(1 0 0 1 -1177 -501 )">
    <path d="M 0 19  L 0 5  C 0 2.19999999999999  2.20000000000005 0  5 0  L 25 0  L 47 0  C 49.8 0  52 2.19999999999999  52 5  L 52 19  C 52 21.8  49.8 24  47 24  L 5 24  C 2.20000000000005 24  0 21.8  0 19  Z " fill-rule="nonzero" fill="#ffffff" stroke="none" transform="matrix(1 0 0 1 1177 501 )" />
    <path d="M 0 19  L 0 5  C 0 2.19999999999999  2.20000000000005 0  5 0  L 25 0  L 47 0  C 49.8 0  52 2.19999999999999  52 5  L 52 19  C 52 21.8  49.8 24  47 24  L 5 24  C 2.20000000000005 24  0 21.8  0 19  Z " stroke-width="2" stroke="#797979" fill="none" transform="matrix(1 0 0 1 1177 501 )" mask="url(#clip9)" />
  </g>
</svg>