<?xml version="1.0" encoding="utf-8"?>
<svg version="1.1" xmlns:xlink="http://www.w3.org/1999/xlink" width="78px" height="28px" xmlns="http://www.w3.org/2000/svg">
  <defs>
    <mask fill="white" id="clip1">
      <path d="M 0 23  L 0 5  C 0 2.19999999999999  2.19999999999999 0  5 0  L 43.0588235294139 0  L 73 0  C 75.8 0  78 2.19999999999999  78 5  L 78 23  C 78 25.8  75.8 28  73 28  L 5 28  C 2.19999999999999 28  0 25.8  0 23  Z " fill-rule="evenodd" />
    </mask>
  </defs>
  <g transform="matrix(1 0 0 1 -252 -210 )">
    <path d="M 0 23  L 0 5  C 0 2.19999999999999  2.19999999999999 0  5 0  L 43.0588235294139 0  L 73 0  C 75.8 0  78 2.19999999999999  78 5  L 78 23  C 78 25.8  75.8 28  73 28  L 5 28  C 2.19999999999999 28  0 25.8  0 23  Z " fill-rule="nonzero" fill="#ffffff" stroke="none" transform="matrix(1 0 0 1 252 210 )" />
    <path d="M 0 23  L 0 5  C 0 2.19999999999999  2.19999999999999 0  5 0  L 43.0588235294139 0  L 73 0  C 75.8 0  78 2.19999999999999  78 5  L 78 23  C 78 25.8  75.8 28  73 28  L 5 28  C 2.19999999999999 28  0 25.8  0 23  Z " stroke-width="2" stroke="#797979" fill="none" transform="matrix(1 0 0 1 252 210 )" mask="url(#clip1)" />
  </g>
</svg>