<?xml version="1.0" encoding="utf-8"?>
<svg version="1.1" xmlns:xlink="http://www.w3.org/1999/xlink" width="12px" height="12px" viewBox="68 98.5  12 12" xmlns="http://www.w3.org/2000/svg">
  <path d="M 74 98.5  C 77.36 98.5  80 101.14  80 104.5  C 80 107.86  77.36 110.5  74 110.5  C 70.64 110.5  68 107.86  68 104.5  C 68 101.14  70.64 98.5  74 98.5  Z " fill-rule="nonzero" fill="#ffffff" stroke="none" />
  <path d="M 74 99  C 77.08 99  79.5 101.42  79.5 104.5  C 79.5 107.58  77.08 110  74 110  C 70.92 110  68.5 107.58  68.5 104.5  C 68.5 101.42  70.92 99  74 99  Z " stroke-width="1" stroke="#797979" fill="none" />
  <path d="M 74 107.5  C 72.32 107.5  71 106.18  71 104.5  C 71 102.82  72.32 101.5  74 101.5  C 75.68 101.5  77 102.82  77 104.5  C 77 106.18  75.68 107.5  74 107.5  " fill-rule="nonzero" fill="#797979" stroke="none" />
</svg>