<?xml version="1.0" encoding="utf-8"?>
<svg version="1.1" xmlns:xlink="http://www.w3.org/1999/xlink" width="12px" height="12px" viewBox="621 367.5  12 12" xmlns="http://www.w3.org/2000/svg">
  <path d="M 627 367.5  C 630.36 367.5  633 370.14  633 373.5  C 633 376.86  630.36 379.5  627 379.5  C 623.64 379.5  621 376.86  621 373.5  C 621 370.14  623.64 367.5  627 367.5  Z " fill-rule="nonzero" fill="#f0f0f0" stroke="none" />
  <path d="M 627 368  C 630.08 368  632.5 370.42  632.5 373.5  C 632.5 376.58  630.08 379  627 379  C 623.92 379  621.5 376.58  621.5 373.5  C 621.5 370.42  623.92 368  627 368  Z " stroke-width="1" stroke="#797979" fill="none" />
  <path d="M 627 376.5  C 625.32 376.5  624 375.18  624 373.5  C 624 371.82  625.32 370.5  627 370.5  C 628.68 370.5  630 371.82  630 373.5  C 630 375.18  628.68 376.5  627 376.5  " fill-rule="nonzero" fill="#797979" stroke="none" />
</svg>