<?xml version="1.0" encoding="utf-8"?>
<svg version="1.1" xmlns:xlink="http://www.w3.org/1999/xlink" width="12px" height="12px" viewBox="360 367.5  12 12" xmlns="http://www.w3.org/2000/svg">
  <path d="M 366 367.5  C 369.36 367.5  372 370.14  372 373.5  C 372 376.86  369.36 379.5  366 379.5  C 362.64 379.5  360 376.86  360 373.5  C 360 370.14  362.64 367.5  366 367.5  Z " fill-rule="nonzero" fill="#f0f0f0" stroke="none" />
  <path d="M 366 368  C 369.08 368  371.5 370.42  371.5 373.5  C 371.5 376.58  369.08 379  366 379  C 362.92 379  360.5 376.58  360.5 373.5  C 360.5 370.42  362.92 368  366 368  Z " stroke-width="1" stroke="#797979" fill="none" />
  <path d="M 366 376.5  C 364.32 376.5  363 375.18  363 373.5  C 363 371.82  364.32 370.5  366 370.5  C 367.68 370.5  369 371.82  369 373.5  C 369 375.18  367.68 376.5  366 376.5  " fill-rule="nonzero" fill="#797979" stroke="none" />
</svg>