<?xml version="1.0" encoding="utf-8"?>
<svg version="1.1" xmlns:xlink="http://www.w3.org/1999/xlink" width="12px" height="12px" viewBox="680 367.5  12 12" xmlns="http://www.w3.org/2000/svg">
  <path d="M 686 367.5  C 689.36 367.5  692 370.14  692 373.5  C 692 376.86  689.36 379.5  686 379.5  C 682.64 379.5  680 376.86  680 373.5  C 680 370.14  682.64 367.5  686 367.5  Z " fill-rule="nonzero" fill="#f0f0f0" stroke="none" />
  <path d="M 686 368  C 689.08 368  691.5 370.42  691.5 373.5  C 691.5 376.58  689.08 379  686 379  C 682.92 379  680.5 376.58  680.5 373.5  C 680.5 370.42  682.92 368  686 368  Z " stroke-width="1" stroke="#797979" fill="none" />
  <path d="M 686 376.5  C 684.32 376.5  683 375.18  683 373.5  C 683 371.82  684.32 370.5  686 370.5  C 687.68 370.5  689 371.82  689 373.5  C 689 375.18  687.68 376.5  686 376.5  " fill-rule="nonzero" fill="#797979" stroke="none" />
</svg>