<?xml version="1.0" encoding="utf-8"?>
<svg version="1.1" xmlns:xlink="http://www.w3.org/1999/xlink" width="12px" height="12px" viewBox="360 390.5  12 12" xmlns="http://www.w3.org/2000/svg">
  <path d="M 366 390.5  C 369.36 390.5  372 393.14  372 396.5  C 372 399.86  369.36 402.5  366 402.5  C 362.64 402.5  360 399.86  360 396.5  C 360 393.14  362.64 390.5  366 390.5  Z " fill-rule="nonzero" fill="#ffffff" stroke="none" />
  <path d="M 366 391  C 369.08 391  371.5 393.42  371.5 396.5  C 371.5 399.58  369.08 402  366 402  C 362.92 402  360.5 399.58  360.5 396.5  C 360.5 393.42  362.92 391  366 391  Z " stroke-width="1" stroke="#797979" fill="none" />
  <path d="M 366 399.5  C 364.32 399.5  363 398.18  363 396.5  C 363 394.82  364.32 393.5  366 393.5  C 367.68 393.5  369 394.82  369 396.5  C 369 398.18  367.68 399.5  366 399.5  " fill-rule="nonzero" fill="#797979" stroke="none" />
</svg>