<?xml version="1.0" encoding="utf-8"?>
<svg version="1.1" xmlns:xlink="http://www.w3.org/1999/xlink" width="21px" height="18px" xmlns="http://www.w3.org/2000/svg">
  <g transform="matrix(1 0 0 1 -324 -251 )">
    <path d="M 329.8 267.415971461063  L 324.608819977256 260  L 329.8 252.584028538937  L 329.8 256.36  L 339.2 256.36  L 339.2 252.584028538937  L 344.391180022744 260  L 339.2 267.415971461063  L 339.2 263.64  L 329.8 263.64  L 329.8 267.415971461063  Z " fill-rule="nonzero" fill="#ffffff" stroke="none" />
    <path d="M 330.3 269  L 324 260  L 330.3 251  L 330.3 255.86  L 338.7 255.86  L 338.7 251  L 345 260  L 338.7 269  L 338.7 264.14  L 330.3 264.14  L 330.3 269  Z M 325.217639954512 260  L 329.3 265.831942922126  L 329.3 263.14  L 339.7 263.14  L 339.7 265.831942922126  L 343.782360045488 260  L 339.7 254.168057077874  L 339.7 256.86  L 329.3 256.86  L 329.3 254.168057077874  L 325.217639954512 260  Z " fill-rule="nonzero" fill="#797979" stroke="none" />
  </g>
</svg>