<?xml version="1.0" encoding="utf-8"?>
<svg version="1.1" xmlns:xlink="http://www.w3.org/1999/xlink" width="12px" height="12px" viewBox="163 232.5  12 12" xmlns="http://www.w3.org/2000/svg">
  <path d="M 169 232.5  C 172.36 232.5  175 235.14  175 238.5  C 175 241.86  172.36 244.5  169 244.5  C 165.64 244.5  163 241.86  163 238.5  C 163 235.14  165.64 232.5  169 232.5  Z " fill-rule="nonzero" fill="#ffffff" stroke="none" />
  <path d="M 169 233  C 172.08 233  174.5 235.42  174.5 238.5  C 174.5 241.58  172.08 244  169 244  C 165.92 244  163.5 241.58  163.5 238.5  C 163.5 235.42  165.92 233  169 233  Z " stroke-width="1" stroke="#797979" fill="none" />
  <path d="M 169 241.5  C 167.32 241.5  166 240.18  166 238.5  C 166 236.82  167.32 235.5  169 235.5  C 170.68 235.5  172 236.82  172 238.5  C 172 240.18  170.68 241.5  169 241.5  " fill-rule="nonzero" fill="#797979" stroke="none" />
</svg>