<?xml version="1.0" encoding="utf-8"?>
<svg version="1.1" xmlns:xlink="http://www.w3.org/1999/xlink" width="12px" height="12px" viewBox="223 231.5  12 12" xmlns="http://www.w3.org/2000/svg">
  <path d="M 229 231.5  C 232.36 231.5  235 234.14  235 237.5  C 235 240.86  232.36 243.5  229 243.5  C 225.64 243.5  223 240.86  223 237.5  C 223 234.14  225.64 231.5  229 231.5  Z " fill-rule="nonzero" fill="#ffffff" stroke="none" />
  <path d="M 229 232  C 232.08 232  234.5 234.42  234.5 237.5  C 234.5 240.58  232.08 243  229 243  C 225.92 243  223.5 240.58  223.5 237.5  C 223.5 234.42  225.92 232  229 232  Z " stroke-width="1" stroke="#797979" fill="none" />
  <path d="M 229 240.5  C 227.32 240.5  226 239.18  226 237.5  C 226 235.82  227.32 234.5  229 234.5  C 230.68 234.5  232 235.82  232 237.5  C 232 239.18  230.68 240.5  229 240.5  " fill-rule="nonzero" fill="#797979" stroke="none" />
</svg>