<?xml version="1.0" encoding="utf-8"?>
<svg version="1.1" xmlns:xlink="http://www.w3.org/1999/xlink" width="12px" height="12px" viewBox="135 104.5  12 12" xmlns="http://www.w3.org/2000/svg">
  <path d="M 141 104.5  C 144.36 104.5  147 107.14  147 110.5  C 147 113.86  144.36 116.5  141 116.5  C 137.64 116.5  135 113.86  135 110.5  C 135 107.14  137.64 104.5  141 104.5  Z " fill-rule="nonzero" fill="#ffffff" stroke="none" />
  <path d="M 141 105  C 144.08 105  146.5 107.42  146.5 110.5  C 146.5 113.58  144.08 116  141 116  C 137.92 116  135.5 113.58  135.5 110.5  C 135.5 107.42  137.92 105  141 105  Z " stroke-width="1" stroke="#797979" fill="none" />
  <path d="M 141 113.5  C 139.32 113.5  138 112.18  138 110.5  C 138 108.82  139.32 107.5  141 107.5  C 142.68 107.5  144 108.82  144 110.5  C 144 112.18  142.68 113.5  141 113.5  " fill-rule="nonzero" fill="#797979" stroke="none" />
</svg>