<?xml version="1.0" encoding="utf-8"?>
<svg version="1.1" xmlns:xlink="http://www.w3.org/1999/xlink" width="12px" height="12px" viewBox="213 175.5  12 12" xmlns="http://www.w3.org/2000/svg">
  <path d="M 219 175.5  C 222.36 175.5  225 178.14  225 181.5  C 225 184.86  222.36 187.5  219 187.5  C 215.64 187.5  213 184.86  213 181.5  C 213 178.14  215.64 175.5  219 175.5  Z " fill-rule="nonzero" fill="#f0f0f0" stroke="none" />
  <path d="M 219 176  C 222.08 176  224.5 178.42  224.5 181.5  C 224.5 184.58  222.08 187  219 187  C 215.92 187  213.5 184.58  213.5 181.5  C 213.5 178.42  215.92 176  219 176  Z " stroke-width="1" stroke="#797979" fill="none" />
  <path d="M 219 184.5  C 217.32 184.5  216 183.18  216 181.5  C 216 179.82  217.32 178.5  219 178.5  C 220.68 178.5  222 179.82  222 181.5  C 222 183.18  220.68 184.5  219 184.5  " fill-rule="nonzero" fill="#797979" stroke="none" />
</svg>