<?xml version="1.0" encoding="utf-8"?>
<svg version="1.1" xmlns:xlink="http://www.w3.org/1999/xlink" width="20px" height="20px" xmlns="http://www.w3.org/2000/svg">
  <g transform="matrix(1 0 0 1 -527 -20 )">
    <path d="M 20 18.2961692395655  L 14.2938822184105 12.5786163522013  L 13.3847913093196 12.5786163522013  L 13.0703259005146 12.2641509433962  C 14.190966266438 10.9662664379646  14.8656375071469 9.27958833619211  14.8656375071469 7.43281875357347  C 14.8656375071469 3.32761578044597  11.538021726701 0  7.43281875357347 0  C 3.32761578044597 0  0 3.32761578044597  0 7.43281875357347  C 0 11.538021726701  3.32761578044597 14.8656375071469  7.43281875357347 14.8656375071469  C 9.27958833619211 14.8656375071469  10.9662664379646 14.190966266438  12.2641509433962 13.0760434534019  L 12.5786163522013 13.390508862207  L 12.5786163522013 14.2938822184105  L 18.2961692395655 20  L 20 18.2961692395655  Z M 12.5786163522013 7.43281875357347  C 12.5786163522013 10.2744425385935  10.2744425385935 12.5786163522013  7.43281875357347 12.5786163522013  C 4.59119496855346 12.5786163522013  2.28702115494568 10.2744425385935  2.28702115494568 7.43281875357347  C 2.28702115494568 4.59119496855346  4.59119496855346 2.28702115494568  7.43281875357347 2.28702115494568  C 10.2744425385935 2.28702115494568  12.5786163522013 4.59119496855346  12.5786163522013 7.43281875357347  Z " fill-rule="nonzero" fill="#000000" stroke="none" transform="matrix(1 0 0 1 527 20 )" />
  </g>
</svg>