<?xml version="1.0" encoding="utf-8"?>
<svg version="1.1" xmlns:xlink="http://www.w3.org/1999/xlink" width="12px" height="12px" viewBox="539 131.5  12 12" xmlns="http://www.w3.org/2000/svg">
  <path d="M 545 131.5  C 548.36 131.5  551 134.14  551 137.5  C 551 140.86  548.36 143.5  545 143.5  C 541.64 143.5  539 140.86  539 137.5  C 539 134.14  541.64 131.5  545 131.5  Z " fill-rule="nonzero" fill="#f0f0f0" stroke="none" />
  <path d="M 545 132  C 548.08 132  550.5 134.42  550.5 137.5  C 550.5 140.58  548.08 143  545 143  C 541.92 143  539.5 140.58  539.5 137.5  C 539.5 134.42  541.92 132  545 132  Z " stroke-width="1" stroke="#797979" fill="none" />
  <path d="M 545 140.5  C 543.32 140.5  542 139.18  542 137.5  C 542 135.82  543.32 134.5  545 134.5  C 546.68 134.5  548 135.82  548 137.5  C 548 139.18  546.68 140.5  545 140.5  " fill-rule="nonzero" fill="#797979" stroke="none" />
</svg>