<?xml version="1.0" encoding="utf-8"?>
<svg version="1.1" xmlns:xlink="http://www.w3.org/1999/xlink" width="12px" height="12px" viewBox="213 165.5  12 12" xmlns="http://www.w3.org/2000/svg">
  <path d="M 219 165.5  C 222.36 165.5  225 168.14  225 171.5  C 225 174.86  222.36 177.5  219 177.5  C 215.64 177.5  213 174.86  213 171.5  C 213 168.14  215.64 165.5  219 165.5  Z " fill-rule="nonzero" fill="#ffffff" stroke="none" />
  <path d="M 219 166  C 222.08 166  224.5 168.42  224.5 171.5  C 224.5 174.58  222.08 177  219 177  C 215.92 177  213.5 174.58  213.5 171.5  C 213.5 168.42  215.92 166  219 166  Z " stroke-width="1" stroke="#797979" fill="none" />
  <path d="M 219 174.5  C 217.32 174.5  216 173.18  216 171.5  C 216 169.82  217.32 168.5  219 168.5  C 220.68 168.5  222 169.82  222 171.5  C 222 173.18  220.68 174.5  219 174.5  " fill-rule="nonzero" fill="#797979" stroke="none" />
</svg>