<?xml version="1.0" encoding="utf-8"?>
<svg version="1.1" xmlns:xlink="http://www.w3.org/1999/xlink" width="12px" height="12px" viewBox="303 368.5  12 12" xmlns="http://www.w3.org/2000/svg">
  <path d="M 309 368.5  C 312.36 368.5  315 371.14  315 374.5  C 315 377.86  312.36 380.5  309 380.5  C 305.64 380.5  303 377.86  303 374.5  C 303 371.14  305.64 368.5  309 368.5  Z " fill-rule="nonzero" fill="#ffffff" stroke="none" />
  <path d="M 309 369  C 312.08 369  314.5 371.42  314.5 374.5  C 314.5 377.58  312.08 380  309 380  C 305.92 380  303.5 377.58  303.5 374.5  C 303.5 371.42  305.92 369  309 369  Z " stroke-width="1" stroke="#797979" fill="none" />
  <path d="M 309 377.5  C 307.32 377.5  306 376.18  306 374.5  C 306 372.82  307.32 371.5  309 371.5  C 310.68 371.5  312 372.82  312 374.5  C 312 376.18  310.68 377.5  309 377.5  " fill-rule="nonzero" fill="#797979" stroke="none" />
</svg>